REM DIRINDEX 1\2\4,1\2\5,1\3\6,1\3\7,1\3\8
REM DIRNAME cjc092,folder01,folder02,folder03,folder04,folder05,folder06,folder07
TITLE ""
FILE "LEVEL6-012-midashigo.mp3" MP3
  TRACK 01 AUDIO
    TITLE "0:"
    INDEX 01 00:00:00
  TRACK 02 AUDIO
    TITLE "6:cjc092_4609"
    INDEX 01 00:00:09
  TRACK 03 AUDIO
    TITLE "0:"
    INDEX 01 00:03:17
  TRACK 04 AUDIO
    TITLE "7:cjc092_4610"
    INDEX 01 00:03:68
  TRACK 05 AUDIO
    TITLE "8:cjc092_4611"
    INDEX 01 00:05:16
  TRACK 06 AUDIO
    TITLE "0:"
    INDEX 01 00:07:62
  TRACK 07 AUDIO
    TITLE "7:cjc092_4612"
    INDEX 01 00:08:23
  TRACK 08 AUDIO
    TITLE "8:cjc092_4613"
    INDEX 01 00:09:38
  TRACK 09 AUDIO
    TITLE "0:"
    INDEX 01 00:10:39
  TRACK 10 AUDIO
    TITLE "7:cjc092_4614"
    INDEX 01 00:10:74
  TRACK 11 AUDIO
    TITLE "8:cjc092_4615"
    INDEX 01 00:12:20
  TRACK 12 AUDIO
    TITLE "0:"
    INDEX 01 00:14:23
  TRACK 13 AUDIO
    TITLE "7:cjc092_4616"
    INDEX 01 00:14:56
  TRACK 14 AUDIO
    TITLE "8:cjc092_4617"
    INDEX 01 00:16:20
  TRACK 15 AUDIO
    TITLE "0:"
    INDEX 01 00:20:59
  TRACK 16 AUDIO
    TITLE "7:cjc092_4618"
    INDEX 01 00:21:19
  TRACK 17 AUDIO
    TITLE "8:cjc092_4619"
    INDEX 01 00:22:58
  TRACK 18 AUDIO
    TITLE "0:"
    INDEX 01 00:24:41
  TRACK 19 AUDIO
    TITLE "7:cjc092_4620"
    INDEX 01 00:25:03
  TRACK 20 AUDIO
    TITLE "8:cjc092_4621"
    INDEX 01 00:26:38
  TRACK 21 AUDIO
    TITLE "0:"
    INDEX 01 00:27:32
  TRACK 22 AUDIO
    TITLE "7:cjc092_4622"
    INDEX 01 00:27:65
  TRACK 23 AUDIO
    TITLE "8:cjc092_4623"
    INDEX 01 00:29:23
  TRACK 24 AUDIO
    TITLE "0:"
    INDEX 01 00:30:26
  TRACK 25 AUDIO
    TITLE "7:cjc092_4624"
    INDEX 01 00:30:59
  TRACK 26 AUDIO
    TITLE "8:cjc092_4625"
    INDEX 01 00:32:09
  TRACK 27 AUDIO
    TITLE "0:"
    INDEX 01 00:33:44
  TRACK 28 AUDIO
    TITLE "7:cjc092_4626"
    INDEX 01 00:34:08
  TRACK 29 AUDIO
    TITLE "8:cjc092_4627"
    INDEX 01 00:35:41
  TRACK 30 AUDIO
    TITLE "0:"
    INDEX 01 00:38:47
  TRACK 31 AUDIO
    TITLE "7:cjc092_4628"
    INDEX 01 00:39:00
  TRACK 32 AUDIO
    TITLE "8:cjc092_4629"
    INDEX 01 00:40:30
  TRACK 33 AUDIO
    TITLE "0:"
    INDEX 01 00:42:63
  TRACK 34 AUDIO
    TITLE "7:cjc092_4630"
    INDEX 01 00:43:23
  TRACK 35 AUDIO
    TITLE "8:cjc092_4631"
    INDEX 01 00:44:61
  TRACK 36 AUDIO
    TITLE "0:"
    INDEX 01 00:48:24
  TRACK 37 AUDIO
    TITLE "7:cjc092_4632"
    INDEX 01 00:48:59
  TRACK 38 AUDIO
    TITLE "8:cjc092_4633"
    INDEX 01 00:50:17
  TRACK 39 AUDIO
    TITLE "0:"
    INDEX 01 00:52:47
  TRACK 40 AUDIO
    TITLE "7:cjc092_4634"
    INDEX 01 00:53:06
  TRACK 41 AUDIO
    TITLE "8:cjc092_4635"
    INDEX 01 00:54:42
  TRACK 42 AUDIO
    TITLE "0:"
    INDEX 01 00:55:65
  TRACK 43 AUDIO
    TITLE "7:cjc092_4636"
    INDEX 01 00:56:25
  TRACK 44 AUDIO
    TITLE "8:cjc092_4637"
    INDEX 01 00:57:58
  TRACK 45 AUDIO
    TITLE "0:"
    INDEX 01 00:59:71
  TRACK 46 AUDIO
    TITLE "7:cjc092_4638"
    INDEX 01 01:00:35
  TRACK 47 AUDIO
    TITLE "8:cjc092_4639"
    INDEX 01 01:01:60
  TRACK 48 AUDIO
    TITLE "0:"
    INDEX 01 01:04:29
  TRACK 49 AUDIO
    TITLE "7:cjc092_4640"
    INDEX 01 01:04:64
  TRACK 50 AUDIO
    TITLE "8:cjc092_4641"
    INDEX 01 01:06:16
  TRACK 51 AUDIO
    TITLE "0:"
    INDEX 01 01:09:50
  TRACK 52 AUDIO
    TITLE "7:cjc092_4642"
    INDEX 01 01:10:12
  TRACK 53 AUDIO
    TITLE "8:cjc092_4643"
    INDEX 01 01:11:58
  TRACK 54 AUDIO
    TITLE "0:"
    INDEX 01 01:14:02
  TRACK 55 AUDIO
    TITLE "7:cjc092_4644"
    INDEX 01 01:14:35
  TRACK 56 AUDIO
    TITLE "8:cjc092_4645"
    INDEX 01 01:15:72
  TRACK 57 AUDIO
    TITLE "0:"
    INDEX 01 01:18:68
  TRACK 58 AUDIO
    TITLE "7:cjc092_4646"
    INDEX 01 01:19:30
  TRACK 59 AUDIO
    TITLE "8:cjc092_4647"
    INDEX 01 01:20:69
  TRACK 60 AUDIO
    TITLE "0:"
    INDEX 01 01:22:05
  TRACK 61 AUDIO
    TITLE "7:cjc092_4648"
    INDEX 01 01:22:41
  TRACK 62 AUDIO
    TITLE "8:cjc092_4649"
    INDEX 01 01:23:71
  TRACK 63 AUDIO
    TITLE "0:"
    INDEX 01 01:26:48
  TRACK 64 AUDIO
    TITLE "7:cjc092_4650"
    INDEX 01 01:27:10
  TRACK 65 AUDIO
    TITLE "8:cjc092_4651"
    INDEX 01 01:28:61
  TRACK 66 AUDIO
    TITLE "0:"
    INDEX 01 01:32:45
